<?xml version="1.0" standalone="no"?>
<!DOCTYPE svg PUBLIC "-//W3C//DTD SVG 1.1//EN" "http://www.w3.org/Graphics/SVG/1.1/DTD/svg11.dtd" >
<svg xmlns="http://www.w3.org/2000/svg" xmlns:xlink="http://www.w3.org/1999/xlink" version="1.1">
<metadata></metadata>
<defs>
<font id="websocialregular" horiz-adv-x="1755" >
<font-face units-per-em="2048" ascent="1741" descent="-307" />
<missing-glyph horiz-adv-x="500" />
<glyph horiz-adv-x="0" />
<glyph horiz-adv-x="682" />
<glyph unicode="," horiz-adv-x="2048" d="M0 70v1323h659q160 0 260.5 -90.5t100.5 -262.5q0 -102 -47 -165.5t-96 -75.5l-50 -8q115 0 174.5 -82t63.5 -164v-82q0 -115 -41 -197t-102.5 -118.5t-121 -55t-100.5 -22.5h-700zM291 307h352q152 0 152 172q0 82 -33 127t-66 49l-37 4h-368v-352zM291 864h348 q53 0 82 31t29 125q0 61 -22.5 96t-47.5 39l-21 4h-368v-295zM1114 496v53q0 20 2 55t28.5 123t74 153.5t148 121t235.5 55.5q143 0 241.5 -59.5t137 -143.5t55 -168t12.5 -141l-4 -62h-655q0 -111 55 -168t112 -57l54 -4q94 0 145 35t55 67l5 37h221q0 -168 -108.5 -254 t-215.5 -90l-110 -4q-147 0 -250 51t-148 127t-67.5 149.5t-22.5 123.5zM1331 1155v160h524v-160h-524zM1384 659h418q0 8 -2 22.5t-12 49.5t-26.5 61.5t-57.5 49t-94 22.5q-86 0 -143.5 -51t-69.5 -104z" />
<glyph unicode="1" horiz-adv-x="1966" d="M0 718.5q0 407.5 288.5 694.5t694.5 287q410 0 696.5 -287t286.5 -694.5t-286.5 -696t-694 -288.5t-696.5 288.5t-289 696zM508 881l37 -50q8 8 20.5 16.5t45 21t43 -4t74 -231.5t79.5 -248q29 -57 78 -88t119 2q111 74 254 245.5t176 364.5q29 168 -99 193 q-123 29 -225 -82q-57 -57 -70 -135q78 49 115 -2.5t-4 -128.5q-90 -172 -131 -172q-29 0 -74 192q-8 29 -16 82t-16.5 92t-25 80t-41 59.5t-61.5 10.5q-53 -12 -122.5 -65.5t-114.5 -102.5z" />
<glyph unicode="2" horiz-adv-x="1966" d="M0 718.5q0 407.5 288.5 694.5t694.5 287q410 0 696.5 -287t286.5 -694.5t-286.5 -696t-694 -288.5t-696.5 288.5t-289 696zM520 455q0 -82 57.5 -129t100.5 -55.5t80 -8.5h16q82 0 152 33q123 61 123 201q0 90 -107 188q-53 45 -53 67.5t41 51.5q70 70 69 164 q0 119 -73 159q4 4 20 7l21 2q82 8 82 32v9h-238q-25 0 -68 -8.5t-108.5 -66t-65.5 -155.5q0 -115 78 -164q45 -33 115 -32h12q-8 -49 33 -103h-4q-283 0 -283 -192zM625 454.5q-2 53.5 43 98.5q41 41 118 49h17q66 0 106.5 -35t44.5 -88t-39 -90t-112.5 -43t-122.5 24.5 t-55 84zM680 934q-12 61 6.5 110.5t58.5 61.5q4 4 21 4q90 0 123 -115q16 -61 -2.5 -116.5t-63.5 -67.5h-20q-86 0 -123 123zM1036 721h156v-156h98v156h156v98h-156v156h-98v-156h-156v-98z" />
<glyph unicode=":" horiz-adv-x="1966" d="M0 718.5q0 407.5 286.5 694.5t696.5 287t696.5 -287t286.5 -694.5t-286.5 -696t-696.5 -288.5t-696.5 288.5t-286.5 696zM700 709h156v-455h176v455h185v151h-185v107q0 57 37 57h148v160h-148q-90 0 -151.5 -67.5t-61.5 -166.5v-90h-156v-151z" />
<glyph unicode=";" horiz-adv-x="1966" d="M0 718.5q0 407.5 286.5 694.5t696.5 287t696.5 -287t286.5 -694.5t-286.5 -696t-696.5 -288.5t-696.5 288.5t-286.5 696zM582 877q-8 -205 143 -238q20 49 18 67.5t-20 49t-23 55.5q-29 197 160 295t324 -37q98 -98 40.5 -303t-200.5 -176q-82 16 -67.5 110.5t49 176 t-42.5 122.5q-86 37 -133.5 -67.5t1.5 -181.5q-8 -41 -42.5 -170t-36.5 -178.5t2 -200.5q106 78 159 352q95 -62 136 -66q168 -16 262 131.5t69 331.5q-20 147 -151 225t-299 58q-135 -16 -239.5 -114.5t-108.5 -241.5z" />
<glyph unicode="=" horiz-adv-x="1966" d="M0 718.5q0 407.5 288.5 694.5t694.5 287q410 0 696.5 -287t286.5 -694.5t-286.5 -696t-694 -288.5t-696.5 288.5t-289 696zM537 406q139 -86 294 -87q250 0 401.5 170t151.5 383v25q61 45 95 98q-66 -25 -111 -28q61 37 86 106q-61 -33 -123 -45q-57 57 -141 57 t-139.5 -57t-55.5 -135l2 -21q2 -16 2 -24q-246 12 -397 205q-29 -49 -29 -99q0 -102 91 -159q-53 0 -91 24v-4q0 -70 43 -123t113 -65q-33 -8 -49 -9q-25 0 -37 5q41 -135 180 -136q-102 -82 -241 -81h-45z" />
<glyph unicode="A" d="M30 280q0 270 31 402q14 68 65.5 115t117.5 53q207 23 617 23q9 -1 18 -1q424 0 632 -22q68 -8 117 -53t68 -115q28 -127 28 -399q0 -268 -28 -400q-16 -68 -67.5 -115t-117.5 -51q-205 -25 -616 -25h-17q-424 0 -634 25q-66 6 -117 51.5t-66 114.5q-31 125 -31 389v8z M158 567h121v-651h112v651h123v107h-356v-107zM303 1741h123l80 -301l78 301h116l-137 -457v-309h-114v309q-16 86 -70 244q-43 117 -76 213zM528 35q0 -57 11 -84q14 -43 67 -43t115 69v-61h102v565h-102v-432q-35 -47 -66 -47q-20 0 -22 23q-2 4 -2 41v415h-103v-446z M702 1161v199q0 92 31 133q43 59 121 59t121 -59q33 -41 33 -133v-199q0 -94 -33 -135q-43 -59 -121 -59t-121 59q-31 43 -31 135zM805 1141q0 -80 49 -80t49 80v239q0 80 -49 80t-49 -80v-239zM911 -84h103v55q51 -63 106 -63q61 0 82 63q10 31 10 115v225q0 84 -10 113 q-20 63 -79.5 63t-108.5 -61v248h-103v-758zM1014 27v344q25 25 51 24q45 0 45 -76v-241q0 -76 -45 -76q-27 0 -51 25zM1092 1096v450h104v-461q4 -25 25 -24q31 0 65 49v436h105v-571h-105v63q-60 -71 -117 -71h-2q-51 0 -67 43q-8 27 -8 86zM1292 100q0 -90 33 -133 q45 -59 125 -59t121 61q20 31 24 62q2 10 2 67v15h-104q0 -59 -2 -70q-8 -41 -45 -41q-53 0 -53 78v100h204v117q0 90 -30 133q-45 57 -122 57t-122 -57q-31 -43 -31 -133v-197zM1393 266v51q0 78 51 78t51 -78v-51h-102z" />
<glyph unicode="B" horiz-adv-x="1769" d="M24 268q-25 23 -24 48q0 25 25 53l811 798q26 26 51 26.5t47 -26.5l811 -798q24 -26 24.5 -52t-24.5 -51q-26 -22 -50.5 -22t-47.5 22l-762 733l-758 -733q-26 -22 -51 -22q-27 0 -52 24z" />
<glyph unicode="C" horiz-adv-x="952" d="M25 668q-24 24 -24.5 50t24.5 52l802 807q22 26 47 26.5t52 -26.5q26 -22 26 -46.5t-26 -51.5l-733 -762l733 -758q26 -26 26 -50.5t-26 -47.5q-26 -26 -51 -26.5t-48 26.5z" />
<glyph unicode="D" horiz-adv-x="2048" d="M4 258q-4 18 -4 35q0 72 70 113l323 221h201l-348 -267h364q16 0 25 -16l82 -225h614l82 225q16 16 25 16h364l-348 267h201l327 -221q38 -20 56 -66q11 -28 11 -52q0 -16 -5 -30l-57 -315q-8 -41 -45 -68t-82 -27h-1672q-45 0 -81.5 27t-45.5 68zM492 1065h339v524h390 v-524h335l-532 -500z" />
<glyph unicode="E" horiz-adv-x="2048" d="M0 716q-2 44 -2 81q0 55 4 91q6 62 8 156.5t27 167.5q18 84 77.5 141.5t143.5 65.5q252 29 766 29t766 -29q82 -8 143.5 -65.5t79.5 -141.5q16 -74 24.5 -168t8.5 -155t2 -172q0 -111 -2 -172.5t-8 -155.5t-27 -168q-18 -84 -77.5 -141t-143.5 -66q-248 -29 -749 -29 q-9 1 -17 1q-514 0 -766 28q-82 8 -143.5 65.5t-79.5 141.5q-15 74 -25 168q-9 79 -8 135v20q1 20 1 47q0 51 -3 125zM731 350q0 -43 39 -63q18 -8 35 -8q23 0 39 10l586 366q32 19 32 62t-32 61l-586 367q-18 12 -38 12q-18 0 -36 -10q-39 -21 -39 -64v-733z" />
<glyph unicode="F" horiz-adv-x="1638" d="M0 160v495q0 127 67.5 205t129 96.5t110.5 18.5q29 0 0 -29q-102 -102 -102 -213v-651q0 -102 106 -213q20 -20 -4 -21q-53 0 -112.5 16.5t-127 92.5t-67.5 203zM410 61v701q0 29 30.5 69.5t94 92t108.5 84t127 88.5l94 63q102 70 213 205l174 213q48 59 71 59q8 0 13 -6 q70 -112 70 -208q-1 -38 -11 -72q-38 -124 -120 -243.5t-82 -123.5q4 -12 118.5 -26.5t221 -49.5t106.5 -96q0 -147 -124.5 -581.5t-219.5 -434.5q-295 0 -589.5 86t-294.5 180z" />
<glyph unicode="G" horiz-adv-x="737" d="M0 -205v1741q0 102 82 102h553q45 0 73.5 -30.5t28.5 -71.5v-1741l-368 369z" />
<glyph unicode="H" horiz-adv-x="1126" d="M0 -307v1638q0 102 82 103h430q41 0 71.5 -31t30.5 -72v-1638l-307 368zM512 1638q0 102 82 103h430q41 0 71.5 -31t30.5 -72v-1740l-307 368v1270q0 41 -30.5 71.5t-71.5 30.5h-205z" />
<glyph unicode="I" horiz-adv-x="2048" d="M0 102v922q0 86 61.5 145.5t143.5 59.5h246q57 0 81 61l62 189q20 57 82 57h696q61 0 82 -57l62 -189q25 -61 81 -61h246q86 0 145.5 -59.5t59.5 -145.5v-922q0 -82 -59.5 -143t-145.5 -61h-1638q-82 0 -143.5 61t-61.5 143zM512 614q0 -213 149.5 -362.5t362.5 -149.5 t362.5 149.5t149.5 362.5t-149.5 362.5t-362.5 149.5t-362.5 -149.5t-149.5 -362.5zM717 614q0 127 90 217.5t217 90.5q131 0 219 -90.5t88 -217.5t-90 -217t-217 -90t-217 90t-90 217zM1700 954q0 -33 22.5 -53t51.5 -20t49 22.5t20 51t-20.5 49t-48.5 20.5q-74 0 -74 -70z " />
<glyph unicode="J" horiz-adv-x="698" d="M0 719q0 47 33 80q422 438 463 483q29 33 80 33t83 -33q39 -37 39 -78t-39 -86l-380 -401l380 -398q39 -45 39 -86t-39 -77q-33 -33 -82 -33t-81 33l-463 483q-33 33 -33 80z" />
<glyph unicode="K" horiz-adv-x="1187" d="M0 948q0 51 33 84q39 39 79 39t81 -39l401 -385l401 385q41 39 81 39t79 -39q33 -33 33 -84t-33 -84l-479 -458q-37 -37 -82 -37t-82 37l-479 458q-33 33 -33 84z" />
<glyph unicode="L" horiz-adv-x="696" d="M37 156q-37 37 -37 77.5t37 85.5l381 398l-381 401q-37 45 -37 86t37 78q33 33 84 33t80 -33l463 -483q33 -33 33 -79q0 -48 -33 -81l-463 -483q-33 -33 -82 -33t-82 33z" />
<glyph unicode="M" horiz-adv-x="1187" d="M0 490q0 51 33 83l479 459q33 33 82 33t82 -33l479 -459q33 -33 33 -84t-33 -83q-39 -39 -79 -39t-81 39l-401 385l-401 -385q-41 -39 -81 -39t-79 39q-33 33 -33 84z" />
<glyph unicode="N" horiz-adv-x="1886" d="M0 810.5q0 16.5 25 25.5q16 8 903 321.5t903 317.5q29 8 45 -6.5t8 -38.5q-4 -12 -147.5 -635t-151.5 -648q-4 -29 -28.5 -39t-49.5 3l-569 307l45 53q795 860 807 872q8 8 -2 18.5t-19 2.5l-1126 -823l-229 90l-389 155q-25 8 -25 24.5zM639 -16v417l328 -168 q-266 -238 -291 -262q-37 -28 -37 13z" />
<glyph unicode="O" horiz-adv-x="2048" d="M4 1073q-5 18 -5 34q0 51 50 73l1393 508q16 4 31 4q50 0 71 -54l209 -577h-205l-254 307l-438 -307h-369q-106 0 -184 -80t-78 -186v-328zM410 -172v967q0 33 22.5 57.5t54.5 24.5h1483q33 0 55.5 -25t22.5 -57v-967q0 -33 -22.5 -57.5t-55.5 -24.5h-1483 q-33 0 -55 24.5t-22 57.5zM631 -49h1224v332l-147 327l-340 -123l-266 -270l-283 348l-188 -438v-176z" />
<glyph unicode="P" horiz-adv-x="2048" d="M0 716.5q0 28.5 41 92t129 145.5t202.5 158t289 127t362.5 51t362.5 -51t289 -127t202.5 -158t129 -145.5t41 -92t-41 -90t-129 -145.5t-202.5 -159.5t-289 -127t-362.5 -51.5t-362.5 51.5t-289 127t-202.5 159.5t-129 145.5t-41 90zM569 719q0 -182 133.5 -311 t321.5 -129t321.5 129t133.5 311t-133.5 311t-321.5 129t-321.5 -129t-133.5 -311zM799 719q0 92 65.5 155.5t159.5 63.5q29 0 20.5 -47t-24.5 -96q-7 -22 -7 -40q0 -22 11 -38q9 -9 32 -9q18 0 44 5q60 12 102.5 22t50.5 -18q0 -90 -67.5 -153.5t-161.5 -63.5t-159.5 63.5 t-65.5 155.5z" />
<glyph unicode="Q" horiz-adv-x="2048" d="M0 415.5q0 149.5 108.5 256t264.5 106.5q29 0 41 -4q-4 25 -4 78q0 221 159.5 376.5t384.5 155.5q184 0 327.5 -106.5t193.5 -273.5q56 8 81 8q205 0 348.5 -139.5t143.5 -340t-143.5 -340t-348.5 -139.5h-389v389h217l-360 471l-356 -471h213v-389h-508 q-152 0 -262.5 106.5t-110.5 256z" />
<glyph unicode="R" d="M0 717q0 240 119 440.5t317.5 319t442 118.5t440.5 -118.5t319 -318.5q117 -191 117 -419v-22q0 -240 -116.5 -440.5t-319.5 -319.5t-440 -119q-127 0 -250 37q68 106 88 188l63 242q23 -45 82.5 -77.5t130.5 -32.5q137 0 246 77.5t170 215.5q59 133 59 298v11 q0 131 -69.5 243.5t-196.5 186t-291 73.5q-121 0 -225 -34.5t-176 -88t-125 -125t-75.5 -147.5t-24.5 -153q0 -119 45 -209t135 -127q33 -14 43 22l8 35q6 27 10 35q6 27 -12 49q-59 70 -59 172q0 172 118.5 297t313.5 125q172 0 268 -94t98 -244q0 -195 -79.5 -330 t-200.5 -137q-70 0 -111 49q-30 36 -30 84q0 18 4 37q8 39 30.5 106.5t32.5 116.5t14 88q-1 55 -31 95q-28 37 -79 36h-8q-72 0 -121 -63.5t-49 -163.5q0 -82 28 -139l-112 -477q-16 -64 -16 -156q0 -23 1 -47q-236 104 -381 321.5t-145 483.5z" />
<glyph unicode="S" horiz-adv-x="2048" d="M4 258q-4 18 -4 35q0 72 70 113l323 221h201l-348 -267h364q16 0 25 -16l82 -225h614l82 225q16 16 25 16h364l-348 267h201l327 -221q38 -20 56 -66q11 -28 11 -52q0 -16 -5 -30l-57 -315q-8 -41 -45 -68t-82 -27h-1672q-45 0 -81.5 27t-45.5 68zM492 1090l532 499 l532 -499h-335v-525h-390v525h-339z" />
<glyph unicode="T" horiz-adv-x="1925" d="M0 12q0 102 418 250q193 70 262.5 141.5t69.5 194.5q0 45 -45.5 100.5t-65.5 149.5q-4 25 -18.5 37t-28.5 16t-28.5 35t-18.5 88q0 33 10 53.5t18 24.5l9 8q-16 102 -25 180q-1 9 -1 18q0 104 85 212q92 118 321.5 118t323.5 -118q83 -105 83 -205q0 -13 -1 -25l-25 -180 q37 -16 37 -86q-4 -57 -18 -88t-28.5 -35t-29 -16.5t-18.5 -36.5q-16 -98 -63 -151.5t-47 -98.5q0 -123 71.5 -194.5t259.5 -141.5q418 -147 418 -250v-217h-1925v217z" />
<glyph unicode="U" horiz-adv-x="2048" d="M0 -205v414q74 29 168 53q193 70 264.5 141.5t71.5 194.5q0 45 -47 98.5t-64 151.5q-4 25 -47 51.5t-51 124.5q0 33 10 53.5t19 24.5l8 8q-16 102 -25 180q-1 13 -1 25q0 99 83 205q94 118 327.5 118t327.5 -118q86 -108 87 -211q0 -10 -1 -19l-28 -180q37 -16 37 -86 q-4 -57 -18.5 -88t-29 -35t-28.5 -16.5t-19 -36.5q-20 -94 -67 -149.5t-47 -100.5q0 -123 73.5 -194.5t266.5 -141.5q369 -131 368 -250v-217h-1638zM1229 614v205h307v307h205v-307h307v-205h-307v-307h-205v307h-307z" />
<glyph unicode="V" horiz-adv-x="952" d="M27 -41l733 758l-733 762q-26 26 -26.5 50.5t26.5 47.5q26 26 50.5 26.5t47.5 -26.5l803 -807q24 -26 24 -52t-24 -50l-803 -807q-22 -26 -46.5 -26.5t-51.5 26.5q-26 22 -26 47t26 51z" />
<glyph unicode="X" horiz-adv-x="1773" d="M27 1069q-26 26 -26.5 50.5t26.5 47.5q24 24 49.5 24.5t52.5 -24.5l758 -729l762 729q22 26 46.5 26.5t51.5 -26.5q26 -22 26.5 -46.5t-26.5 -51.5l-811 -803q-22 -22 -47 -22t-51 22z" />
<glyph unicode="Y" horiz-adv-x="2048" d="M0 -184v377q0 90 172 159q156 66 213 131.5t57 180.5q0 41 -38.5 90t-51.5 139q-4 20 -36.5 45t-41.5 115q0 29 6.5 47t14.5 26l8 4q-12 94 -20 168q-1 10 -1 20q0 92 68 191q76 109 260.5 109t259.5 -108q69 -99 69 -192q0 -10 -1 -20l-20 -168q29 -16 28 -77 q-8 -90 -41 -115t-37 -45q-12 -90 -51 -139t-39 -90q0 -115 57.5 -180.5t213.5 -131.5q373 -160 372 -254v-282h-1421zM1171 934q0 49 25 61q-12 70 -16 123q-1 10 -1 20q0 68 48 140q55 82 194.5 82t196.5 -82q50 -72 50 -141q0 -9 -1 -19l-16 -123q24 -12 24 -57 q0 -71 -29 -90q-24 -17 -28 -33q-12 -70 -39 -104.5t-27 -67.5q0 -86 43 -135t158 -98q229 -94 266 -164q12 -16 18.5 -125t10.5 -207v-98h-459v307q0 111 -61.5 166t-315.5 182q82 61 82 172q0 33 -26.5 67.5t-38.5 104.5q-4 16 -28.5 32.5t-29.5 86.5z" />
<glyph unicode="Z" d="M0 168v1098q0 135 96.5 231t233.5 98h1095q137 0 233.5 -98t96.5 -231v-1098q0 -135 -96 -231.5t-234 -98.5h-1095q-137 0 -233.5 98.5t-96.5 231.5zM250 402q0 -200 22 -296q10 -49 49 -83.5t87 -38.5q156 -18 471 -18q8 0 16 -1q303 0 453 19q49 4 88 38.5t47 83.5 q22 96 22 297q0 203 -20 297q-12 51 -49 84t-88 39q-154 19 -470 19h-16q-303 0 -454 -19q-49 -4 -86 -38.5t-50 -84.5q-23 -96 -23 -289q1 -5 1 -9zM342 614v80h266v-80h-92v-483h-84v483h-90zM453 1487l53 -158q41 -119 53 -182v-229h84v229l102 340h-83l-60 -223l-59 223 h-90zM618 219v332h76v-309q0 -27 2 -29q0 -16 17 -16q23 0 49 34v320h76v-420h-76v47q-45 -51 -88 -51q-37 0 -47 31q-8 18 -9 61zM748 1055q0 -66 24 -99q31 -45 88.5 -45t89.5 45q23 31 23 99v149q0 66 -23 99q-33 43 -90 43t-88 -43q-24 -32 -24 -94v-5v-149zM823 1040 v179q0 59 37 59t37 -59v-179q0 -59 -37 -59t-37 59zM903 131v563h76v-182q37 45 78 45q47 0 61 -49q8 -23 8 -84v-166q0 -59 -8 -84q-14 -47 -61 -47q-39 0 -78 45v-41h-76zM979 213q18 -16 39 -16q33 0 33 55v180q0 55 -33 55q-20 0 -39 -18v-256zM1036 1006q0 -43 8 -64 q12 -31 48 -31q43 0 88 52v-45h77v423h-77v-323q-25 -37 -47 -37q-16 0 -19 18v342h-78v-335zM1186 268v148q0 68 22 98q33 43 90.5 43t90.5 -43q25 -33 24 -98v-88h-151v-74q0 -57 36 -57q29 0 35 28l2 8q2 6 0 19v24h78v-10q0 -33 -2 -49q-4 -25 -18 -45 q-31 -45 -90.5 -45t-94.5 43q-22 30 -22 92v6zM1262 391h73v39q0 57 -36.5 57t-36.5 -57v-39z" />
<glyph unicode="a" horiz-adv-x="1169" d="M109 707v337h290v250q0 213 119 330t318 117q168 -1 260 -15v-301h-178q-98 0 -133 -41t-35 -122v-218h335l-45 -337h-290v-869h-351v869h-290z" />
<glyph unicode="b" horiz-adv-x="2193" d="M-2 1132.5q0 12.5 4 18.5l4 6q18 23 66 23l313 2q14 -2 26.5 -8.5t18.5 -8.5l6 -4q18 -12 27 -37q23 -57 53 -118l47 -93l19 -32q33 -70 63.5 -119t55 -78t47 -45t39 -16t30.5 6l6 6q4 4 14.5 24.5t14.5 53.5l10 94q3 30 3 65.5t-3 75.5q-2 47 -10 84t-14 53l-9 13 q-29 39 -96 49q-16 4 6 29q18 20 43 34q55 27 246 27h27q94 -2 153 -14q25 -6 39.5 -16.5t24.5 -27t10 -37t4 -53t0 -61.5t-4 -82v-94l-2 -47q-2 -35 0 -55l4 -45q2 -25 12.5 -45.5t26.5 -28.5l18 -4q10 -2 31 12t43.5 38.5t59 78t77.5 123.5q68 119 123 256q4 12 10.5 20 t12.5 12l4 4l22 7q16 4 23 0l328 2q19 2 34 2q21 0 39 -4q28 -8 35 -21l8 -10q3 -9 3 -20q0 -85 -175 -316q-27 -37 -73 -98q-90 -115 -103 -150q-7 -17 -7 -34q0 -29 22 -58q20 -25 94 -94h2v-2l2 -2q162 -150 219 -252l8 -15q4 -8 6 -30.5t0 -39t-28.5 -30.5t-67.5 -14 l-293 -6q-8 -1 -16 -1q-22 0 -48 7q-36 10 -59 24l-22 15q-35 25 -80 74t-78 87.5t-69 65.5q-27 20 -51 20q-8 0 -15 -2q-2 0 -8 -4t-20.5 -16t-25 -32.5t-18.5 -59.5t-8 -90q0 -16 -4 -30.5t-8 -20.5l-4 -7q-20 -23 -62 -24h-131q-16 -1 -32 -1q-66 -1 -134 19 q-84 24 -151.5 59t-116.5 76t-82 66l-29 29l-30 32q-20 23 -82 105t-121 172t-139 241.5t-150 311.5q-8 18 -8 30.5z" />
<glyph unicode="c" horiz-adv-x="2048" d="M115 86v1325l125 330h1693v-1157l-495 -498h-373l-248 -248h-248v248h-454zM403 377h373v-248l248 248h455l288 289v909h-1364v-1198zM858 750v495h166v-495h-166zM1313 750v495h166v-495h-166z" />
<glyph unicode="d" d="M0 63v1307q0 92 65.5 157.5t159.5 67.5h1305q92 1 160 -67q66 -66 65 -153v-5v-1307q0 -92 -65.5 -157.5t-159.5 -67.5h-1305q-91 0 -159 68q-66 66 -66 152v5zM195 111q0 -29 20.5 -49.5t50.5 -20.5h1221q29 0 49 20.5t20 49.5v741h-153q22 -69 22 -144v-6 q0 -145 -73.5 -266t-198.5 -192.5t-274 -71.5q-225 0 -385 155.5t-160 374.5q0 78 22 150h-161v-741zM526 721v-5q0 -138 104 -236q106 -100 249 -101q147 0 249.5 100.5t104.5 241.5q0 141 -104.5 241.5t-250 100.5t-248 -100.5t-104.5 -241.5zM1200 1133q0 -35 22.5 -57.5 t55.5 -22.5h201q33 0 55 22.5t22 57.5v188q0 31 -22.5 55.5t-54.5 22.5h-201q-33 0 -55.5 -22.5t-22.5 -55.5v-188z" />
<glyph unicode="e" horiz-adv-x="2048" d="M0 1059q0 252 145.5 393t401.5 143q70 0 143.5 -24.5t137 -67.5t110.5 -77.5t86 -77.5q41 41 86 77.5t110.5 77.5t137.5 67q67 25 133 25h10q256 0 401.5 -143t145.5 -393q0 -252 -262 -514l-711 -686q-20 -20 -51 -20.5t-51 20.5l-713 688l-31 31q-20 20 -63 73.5 t-78 112.5t-61.5 137t-26.5 158zM145 1059q0 -190 215 -406l664 -639l664 639q215 216 215 406q0 94 -25 163.5t-63.5 112.5t-94.5 67q-55 26 -106 38q-39 9 -83 9q-13 0 -29 -1q-62 -4 -127.5 -28.5t-127 -74t-98.5 -82t-70 -69.5q-20 -27 -55 -27t-55 27q-29 31 -70 70 t-99 82q-56 44 -126 74q-65 29 -120 28h-8q-58 -2 -112.5 -8t-106 -37t-94.5 -68t-63 -112.5t-25 -163.5z" />
<glyph unicode="f" d="M0 168v1098q0 135 96.5 231t233.5 98h1095q137 0 233.5 -98t96.5 -231v-1098q0 -135 -96 -231.5t-234 -98.5h-1095q-137 0 -233.5 98.5t-96.5 231.5zM295 1065q41 -39 106 -39q68 0 109 39t43 98q-2 59 -43 98t-104.5 39t-108.5 -38q-44 -38 -44 -96q0 -61 42 -101z M270 125h265v793h-265v-793zM680 125h264v442q0 45 8 66q16 39 51 67.5t84 28.5q133 0 134 -180v-424h264v455q0 176 -84 266t-221 90q-154 0 -238 -133h2v115h-264q2 -38 2 -236t-2 -557z" />
<glyph unicode="g" d="M0 1376q0 84 59.5 139.5t153.5 55.5t151.5 -55.5t59.5 -139.5q0 -84 -59.5 -139t-153.5 -55h-2q-94 0 -151.5 55t-57.5 139zM23 -106v1132h376v-1132h-376zM606 -106q2 457 2 739v338l-2 55h377v-164h-2q23 37 47.5 63.5t63 59.5t100 49.5t131.5 18.5q195 0 313.5 -129 t118.5 -381v-649h-375v606q0 121 -47 188.5t-145 67.5q-72 0 -119 -39t-74 -99q-12 -35 -12 -92v-632h-377z" />
<glyph unicode="h" d="M0 168v1098q0 135 96.5 231t233.5 98h1095q137 0 233.5 -98t96.5 -231v-1098q0 -135 -96 -231.5t-234 -98.5h-1095q-137 0 -233.5 98.5t-96.5 231.5zM457 854h149v-477q0 -66 24.5 -131.5t73.5 -127.5q50 -62 140 -98q85 -35 189 -34h11q80 0 155.5 28.5t98.5 57.5 l-71 209q-49 -25 -117 -25h-11q-35 0 -61 10q-30 12 -42.5 37t-20.5 47.5t-6 48.5v455h295v221h-293v373h-215q-10 0 -11 -10q-6 -51 -20 -100.5t-45 -109t-88 -108.5t-135 -78v-188z" />
<glyph unicode="i" d="M0 168v1098q0 135 96.5 231t233.5 98h1095q137 0 233.5 -98t96.5 -231v-1098q0 -135 -96 -231.5t-234 -98.5h-1095q-137 0 -233.5 98.5t-96.5 231.5zM293 236q0 -53 22.5 -90t61.5 -60t82 -29t94 -8q256 0 256 213q0 78 -55.5 115t-145.5 51q-31 6 -57.5 24.5t-28.5 45.5 q0 49 56 59q88 16 139 79.5t53 154.5q0 27 -12 59q43 10 55 14v144q-88 -33 -154 -33q-57 33 -124 33q-98 0 -166 -65.5t-68 -164.5q0 -57 33 -116.5t84 -75.5v-4q-43 -18 -43 -97q0 -61 47 -88v-4q-129 -43 -129 -157zM436 242q0 74 115 74h2q113 0 113 -70q0 -76 -107 -76 q-123 0 -123 72zM451 778q0 102 88 103q43 0 63.5 -29t22.5 -74q0 -96 -87 -96t-87 96zM862 1210q0 -41 29 -71.5t69.5 -30.5t67.5 30.5t29 71.5q0 41 -29 74q-27 31 -63 31h-5q-38 -2 -69 -31q-29 -27 -29 -69v-5zM881 385h157q-2 31 -2 94v443q0 53 2 77h-157q4 -25 4 -79 v-449q0 -57 -4 -86zM1104 866l43 4l12 -2q10 -2 15 0v-2h-5v-248q0 -43 4.5 -73.5t12.5 -63t28 -55.5q22 -23 50 -37q25 -12 64 -12h11h5q70 0 118 26v140q-33 -25 -78 -25q-59 0 -59 94v256h90q20 0 29 -2v133h-119q0 94 2 117h-160q6 -27 7 -61v-56h-70v-133z" />
<glyph unicode="j" horiz-adv-x="1169" d="M78 969v245q82 29 147.5 80.5t104.5 102.5t65.5 116.5t38.5 112.5t17 100q2 6 6 10.5t8 4.5h278v-486h381v-286h-381v-592q0 -35 6.5 -65.5t27 -59.5t57.5 -48q32 -16 81 -16h11q90 2 153 33l90 -270q-25 -39 -125 -76t-202 -37h-14q-111 0 -206 31q-100 33 -161.5 84 t-108.5 120.5t-63.5 137.5t-18.5 135v623h-192z" />
<glyph unicode="k" d="M0 1155q0 182 129 311t309 129q150 0 269 -92q88 18 172 19q162 0 311 -63.5t257.5 -172t170 -256t63.5 -313.5q0 -84 -18 -172q92 -119 92 -266q0 -182 -129 -311.5t-309 -129.5q-150 0 -268 92q-88 -18 -170 -18q-164 0 -313.5 63.5t-258 172t-170 256t-63.5 313.5 q0 84 18 172q-92 119 -92 266zM430 442q0 -106 139.5 -180t331.5 -76q84 0 160 20.5t141.5 61.5t100 106.5t38.5 151.5q0 57 -22.5 104.5t-55 78t-84 55t-94.5 39t-100 26.5l-170 41q-16 4 -38.5 12.5t-35 18.5t-18.5 24.5t-8 32.5q0 88 164 89q49 0 88 -12.5t61 -33.5 l43 -38q20 -18 47 -33t56 -15q53 0 85.5 37t32.5 88q0 63 -65.5 112.5t-161.5 78.5q-87 26 -186 26h-21q-78 0 -151.5 -18t-137 -53t-100.5 -98.5t-39 -147.5q0 -70 20.5 -123t65.5 -86t90 -55.5t119 -36.5l166 -41q104 -25 129 -41q37 -23 37 -68t-47 -75q-44 -29 -110 -29 h-9q-59 0 -104.5 18.5t-76 45t-51 51t-53.5 43t-61 18.5q-57 0 -86 -34.5t-29 -84.5z" />
<glyph unicode="l" d="M0 168v1098q0 135 96.5 231t233.5 98h1095q137 0 233.5 -98t96.5 -231v-1098q0 -135 -96 -231.5t-234 -98.5h-827q96 139 123 242l61 237q23 -43 84.5 -75.5t128.5 -32.5q207 0 336 170t131 426q0 96 -39 186t-110.5 158t-174 111t-223 43t-225 -33t-174.5 -88.5 t-123 -125t-75.5 -145t-24.5 -151.5q0 -117 45 -207t133 -125q14 -6 26.5 0t16.5 21q12 51 18 69q6 27 -14 49q-57 72 -57 172q1 170 119 293q117 121 303 121h6q170 0 266 -92t96 -240q0 -193 -77.5 -328t-198.5 -135q-68 0 -111 52q-31 37 -31 80q0 17 5 36 q10 39 30.5 106.5t32.5 117t12 84.5q0 57 -28.5 94t-85.5 37q-72 0 -119 -63.5t-49 -160.5q0 -82 26 -139l-110 -473q-17 -67 -17 -154q0 -63 9 -137h-209q-137 0 -233.5 98.5t-96.5 231.5z" />
<glyph unicode="m" d="M0 168v1098q0 135 96.5 231t233.5 98h1095q137 0 233.5 -98t96.5 -231v-1098q0 -135 -96 -231.5t-234 -98.5h-1095q-137 0 -233.5 98.5t-96.5 231.5zM145 907q18 -10 30.5 -30.5t25.5 -22.5q23 -4 61 10q33 12 57 13q5 -1 9 -1q26 -2 49 -34q12 -20 20 -45l31 -101 q20 -53 61 -213q41 -168 66 -225q47 -115 117 -143q26 -8 53 -8l45 6q49 12 86 37q150 88 285 270q121 158 199 334t94 260q5 28 5 53q0 59 -30 96q-45 56 -145 56q-31 0 -68 -5q-20 -2 -47 -14t-66 -34.5t-73.5 -55.5t-67.5 -80t-51 -104q21 2 39 2q60 0 90 -20 q32 -22 32 -85q0 -13 -1 -28q-6 -59 -60 -164q-49 -88 -82 -113q-20 -15 -40 -15l-58 32q-27 27 -43 73.5t-22.5 81.5t-10.5 96.5t-10 81.5q-27 147 -40 188.5t-40 78t-57 47.5q-17 4 -36 4q-51 0 -110 -33q-61 -37 -155 -123t-142 -115v-8z" />
<glyph unicode="n" horiz-adv-x="2338" d="M0 967q0 193 110 355q112 161 304 255q188 92 406 92h9q201 0 379 -73.5t299 -209t156 -299.5q-35 6 -80 7q-193 0 -354.5 -88t-255.5 -240q-92 -149 -92 -321v-7q0 -90 26 -174q-41 -4 -78 -4q-31 0 -57.5 2t-62.5 8l-52 9q-14 2 -61 12t-57 10l-289 -143l82 248 q-332 233 -332 561zM435 1211q0 -43 38 -71q39 -28 86 -28t76 26.5t29 75.5q0 47 -29 76t-77 29t-85 -31q-38 -32 -38 -77zM932 446.5q0 161.5 94 303t256 217t354 82.5q184 0 346 -82t260.5 -219.5t98.5 -301.5q0 -133 -78 -253.5t-213 -221.5l64 -207l-228 123 q-172 -41 -250 -41q-193 0 -354.5 80t-255.5 219.5t-94 301zM1016 1213q0 -44 37 -72.5t85 -28.5t76.5 26.5t28.5 75.5q0 47 -28.5 76t-76.5 29t-85 -31t-37 -75zM1325 635q0 -33 26.5 -57.5t57.5 -26.5q45 0 73.5 24.5t28.5 59.5q-1 31 -29 57q-26 25 -67 25h-6 q-33 0 -57.5 -26.5t-26.5 -55.5zM1782 635q0 -33 26.5 -57.5t55.5 -26.5q45 0 73.5 24.5t30.5 59.5q0 31 -30 57q-28 25 -68 25h-6q-31 0 -55.5 -26.5t-26.5 -55.5z" />
<glyph unicode="o" horiz-adv-x="2048" d="M78 -6q0 188 209 256v6q-78 45 -78 143q0 125 72 156v6q-82 27 -135.5 123t-55.5 188q0 160 108 266q106 105 263 105h6q111 0 205 -53q111 0 248 53v-229q-41 -14 -91 -27q18 -49 19 -96q0 -143 -84 -245.5t-225 -129.5q-45 -10 -67.5 -30.5t-22.5 -67.5 q0 -35 26.5 -57.5t65.5 -37t90 -24.5t98 -30.5t90 -43t65.5 -72t26.5 -112.5q0 -348 -415 -348q-78 0 -147.5 14t-133 47t-100.5 94.5t-37 145.5zM311 6q0 -117 197 -117q172 0 172 121q0 115 -188 115q-181 0 -181 -119zM336 870q0 -153 139 -153h2h2q133 0 133 155 q0 72 -34.5 117t-100.5 47q-141 0 -141 -166zM1000 1575q0 67 44 115q46 50 114 50h2q66 0 108 -50q43 -51 45 -117q0 -66 -45 -117q-44 -50 -108 -50h-2q-66 1 -112 50q-46 50 -46 119zM1030 238q4 51 4 151v696q0 109 -4 148h254q-6 -39 -6 -143v-701q0 -100 6 -151h-254z M1391 1016v217h110v86q0 61 -8 102h260q-6 -47 -6 -188h195v-217q-16 0 -49 2t-50 2h-96v-418q0 -149 97 -149h1q70 0 125 39v-226q-82 -45 -198 -45q-72 0 -123.5 24.5t-80 55.5t-45 90.5t-20.5 104.5t-4 118v402h2v4h-22q-14 0 -21 2q-25 0 -67 -6z" />
<glyph unicode="p" horiz-adv-x="1900" d="M37 193q0 94 51 171.5t135 131.5q150 94 461 114q-37 49 -53.5 84t-18.5 84q0 41 25 99q-53 -6 -78 -7q-170 0 -284.5 111t-116.5 281q0 92 41 180t112 149q88 76 209 113t250 37h477l-157 -101h-150q84 -72 127 -151.5t43 -183.5q0 -82 -26.5 -147.5t-67.5 -106.5 t-80 -74t-67.5 -70t-28.5 -76q0 -41 36.5 -81.5t88 -75.5t104.5 -84t88 -121t37 -162q0 -102 -55 -196q-82 -139 -242 -207q-155 -66 -330 -66h-10q-152 0 -283 49.5t-194 155.5q-43 70 -43 150zM250 246q0 -80 39 -141.5t104.5 -94.5t136.5 -51q65 -16 131 -16h15 q66 0 127 14t112.5 45t84.5 84q30 50 30 117v8q0 29 -8 55.5t-16.5 49t-31 47t-32.5 39t-45 41t-41 32.5t-47 33t-43 31q-16 2 -53 2q-61 0 -121 -8.5t-123 -29t-110.5 -51t-78 -86t-30.5 -120.5zM371 1382q0 -53 10 -112.5t36.5 -116.5t59.5 -106.5t86.5 -76t110.5 -30.5 q43 0 88 20.5t76 49.5q61 66 61 182q0 66 -20.5 141.5t-55.5 149t-96 116.5t-133 48q-49 0 -94 -22.5t-76 -59.5q-53 -68 -53 -183zM1239 821v123h242v248h121v-248h243v-123h-243v-250h-121v250h-242z" />
<glyph unicode="q" horiz-adv-x="1462" d="M127 193q0 94 51 171.5t135 131.5q150 94 461 114q-35 47 -53.5 84t-18.5 83t25 97q-53 -4 -78 -4q-170 0 -284.5 111t-116.5 281q0 92 41 180t112 149q88 76 209 113t250 37h475l-155 -101h-152q86 -72 129 -151.5t45 -183.5q0 -82 -28.5 -147.5t-67.5 -106.5t-80 -74 t-68 -70q-27 -38 -27 -79q0 -38 36 -78q37 -41 88 -78t104 -84t88 -119t37 -162q0 -104 -57 -196q-80 -139 -240 -207q-155 -66 -330 -66h-10q-152 0 -283 49.5t-196 155.5q-41 68 -41 150zM340 246.5q0 -64.5 26.5 -117.5t69.5 -86t98.5 -57.5t115 -32.5t116.5 -10 q66 0 127 14t112.5 45t84.5 84q30 50 30 117v8q0 29 -6 55.5t-18.5 49t-30.5 47t-32.5 39t-45.5 41t-41 32.5t-47 33t-41 31q-18 2 -57 2q-59 0 -118.5 -8.5t-123 -29t-111 -51t-78 -86t-30.5 -120zM461 1382q0 -53 12 -112.5t34.5 -116.5t59.5 -106.5t86 -76t111 -30.5 q41 0 88 20.5t76 49.5q59 63 59 182q0 68 -18.5 143.5t-55 147t-96 117t-133.5 47.5q-49 0 -94 -22.5t-76 -59.5q-53 -68 -53 -183z" />
<glyph unicode="r" d="M0 168v1098q0 135 96.5 231t233.5 98h1095q137 0 233.5 -98t96.5 -231v-1098q0 -135 -96 -231.5t-234 -98.5h-219v697h234l33 256h-267v163q0 61 33 94t109 33l151 2v236q-109 10 -205 10q-156 0 -250 -92t-94 -258v-188h-256v-256h256v-697h-620q-137 0 -233.5 98.5 t-96.5 231.5z" />
<glyph unicode="s" d="M0 168v1098q0 135 96.5 231t233.5 98h1095q137 0 233.5 -98t96.5 -231v-1098q0 -135 -96 -231.5t-234 -98.5h-1095q-137 0 -233.5 98.5t-96.5 231.5zM315 338q0 -49 20.5 -88t55.5 -63.5t80 -43t88 -24.5t88 -6q68 0 137.5 16t129 53t98.5 94.5t39 133.5q0 57 -22.5 102 t-57.5 78t-66 53.5t-55.5 51t-24.5 49t18.5 49t43 45t51.5 49.5t43 67.5t16 94.5q0 68 -24.5 112.5t-83.5 104.5h94l102 73h-303q-98 0 -184 -36.5t-145.5 -112.5t-59.5 -174q0 -106 74 -178q72 -70 174 -70h6q27 0 49 4q-14 -33 -14 -61q0 -51 45 -109q-199 -12 -293 -72 q-53 -33 -86 -84t-33 -108zM451 373q0 51 28.5 90t75.5 59.5t94 28.5t96 8q23 0 35 -2l27 -18q25 -16 31 -22.5t24.5 -21t28.5 -24.5t22.5 -26.5t18.5 -29t10 -31t6 -36.5q0 -86 -67.5 -127t-159.5 -43q-47 0 -92 12.5t-86 31t-65.5 61.5t-26.5 90zM528 1094q0 70 37 119 t105 49q61 0 106 -52q46 -50 68 -116q19 -56 19 -106q0 -9 -1 -17q0 -68 -37 -113t-104 -45q-61 0 -106.5 49t-66 108.5t-20.5 123.5zM1098 754h145v-185h74v185h145v71h-145v148h-74v-148h-145v-71z" />
<glyph unicode="t" horiz-adv-x="2338" d="M0 10v1440h680q98 0 176 -16.5t145.5 -53.5t102.5 -110.5t35 -175.5q0 -207 -197 -301q131 -35 196.5 -131.5t67.5 -233.5q0 -84 -28.5 -155.5t-75.5 -119t-112 -79.5q-66 -34 -138 -50q-64 -15 -136 -14h-18h-698zM317 254h338q233 0 234 192q0 205 -227 205h-345v-397z M317 868h320q90 0 141 41t53 131q0 164 -217 164h-297v-336zM1298 530q0 238 149.5 395.5t385.5 157.5q158 0 274.5 -77.5t176.5 -204.5q58 -123 57 -275v-10q0 -18 -2 -53h-752q-1 -127 65 -197q64 -68 184 -67h7q72 0 139.5 34.5t85.5 100.5h252q-113 -350 -487 -350 q-244 0 -389.5 149.5t-145.5 396.5zM1528 1212h583v142h-583v-142zM1587 643h465q-20 223 -227 223q-104 0 -168 -59t-70 -164z" />
<glyph unicode="u" horiz-adv-x="2338" d="M0 295v797h375v327h233v-1124h-608zM233 483h142v422h-142v-422zM702 295h234v797h-234v-797zM702 1186h234v233h-234v-233zM1030 14v187h375v94h-375v797h608v-1078h-608zM1264 483h141v422h-141v-422zM1733 14v187h372v94h-372v797h608v-1078h-608zM1966 483h139v422 h-139v-422z" />
<glyph unicode="v" d="M45 1454h324q29 -248 80 -454.5t118.5 -362.5t139 -268.5t159.5 -223.5q193 193 328 465q-162 82 -254 250t-92 381q0 219 118 361q118 141 320 140h3q204 -1 312.5 -122t108.5 -340q0 -182 -65 -326l-23 -4q-14 -2 -53 -2t-72 6.5t-69.5 29t-57.5 58.5q35 119 35 211 q0 98 -33 149.5t-92 51.5t-96 -55.5t-37 -161.5q0 -211 121 -334t305 -123q69 1 137 17v-228q-111 -26 -217 -26h-8q-74 -156 -188.5 -309.5t-209 -245.5t-145.5 -123q-44 -25 -89 -25q-48 0 -97 29q-31 18 -68 49t-98.5 96.5t-116.5 147.5t-122.5 209t-121 278.5 t-104.5 360.5t-80 444z" />
<glyph unicode="w" horiz-adv-x="1900" d="M51 152q39 -6 88 -7q258 0 459 158q-121 4 -215 73.5t-131 182.5q39 -4 70 -4q49 0 98 12q-129 27 -213 127.5t-84 235.5v4q78 -43 168 -47q-76 51 -121 131t-45 178t51 184q139 -170 336 -272t426 -113q-10 43 -10 84q0 154 108.5 260.5t259.5 108.5q162 0 271 -117 q125 25 233 90q-41 -131 -162 -204q107 12 213 57q-76 -111 -184 -191v-47q0 -150 -43 -297t-131 -284.5t-211 -239.5q-123 -101 -295 -167q-162 -62 -348 -62h-23q-309 0 -565 166z" />
<glyph unicode="x" d="M0 168v1098q0 135 96.5 231t233.5 98h1095q137 0 233.5 -98t96.5 -231v-1098q0 -135 -96 -231.5t-234 -98.5h-1095q-137 0 -233.5 98.5t-96.5 231.5zM293 311q168 -106 369 -106q127 0 239.5 41t190 108.5t139 155.5t86 186.5t26.5 192.5v31q72 50 119 124 q-63 -29 -137 -38q78 45 107 133q-76 -43 -154 -60q-70 76 -172 76t-172 -69.5t-72 -170.5q0 -33 6 -55q-147 8 -276 76t-219 176q-33 -57 -33 -121q0 -131 104 -200q-55 2 -114 30v-2q0 -86 57 -153.5t139 -81.5q-33 -10 -57 -11q-14 0 -45 5q25 -72 86 -119t137 -47 q-131 -102 -297 -103q-31 0 -57 2z" />
<glyph unicode="y" d="M0 168v1098q0 135 96.5 231t233.5 98h1095q137 0 233.5 -98t96.5 -231v-1098q0 -135 -96 -231.5t-234 -98.5h-1095q-137 0 -233.5 98.5t-96.5 231.5zM145 276h439q133 0 225 66q90 65 90 190v5q0 180 -164 227q123 59 123 188q0 66 -22.5 111t-63.5 69.5t-90.5 33 t-112.5 10.5h-424v-900zM344 428v248h215q143 0 143 -129q0 -119 -147 -119h-211zM344 811v211h186q135 0 136 -102q0 -109 -121 -109h-201zM958 600q0 -154 90.5 -248t243.5 -94q233 0 305 219h-157q-14 -39 -55.5 -61.5t-86.5 -22.5q-78 0 -118.5 43t-40.5 121h469 q2 12 2 35q0 152 -86 252t-232 101h-3q-145 0 -239 -97q-92 -96 -92 -242v-6zM1102 1026v88h364v-88h-364zM1139 672q4 63 45 100t102 39q129 0 144 -139h-291z" />
<glyph unicode="z" horiz-adv-x="2048" d="M0 1059q0 252 145.5 393t401.5 143q70 0 143.5 -24.5t137 -67.5t110.5 -77.5t86 -77.5q41 41 86 77.5t110.5 77.5t137.5 67q67 25 133 25h10q256 0 401.5 -143t145.5 -394t-262 -513l-711 -686q-20 -21 -51 -21q-29 0 -51 21l-713 688l-31 31q-20 20 -63 73.5t-78 112.5 t-61.5 137t-26.5 158z" />
<glyph unicode="&#x2000;" horiz-adv-x="871" />
<glyph unicode="&#x2001;" horiz-adv-x="1742" />
<glyph unicode="&#x2002;" horiz-adv-x="871" />
<glyph unicode="&#x2003;" horiz-adv-x="1742" />
<glyph unicode="&#x2004;" horiz-adv-x="580" />
<glyph unicode="&#x2005;" horiz-adv-x="435" />
<glyph unicode="&#x2006;" horiz-adv-x="290" />
<glyph unicode="&#x2007;" horiz-adv-x="290" />
<glyph unicode="&#x2008;" horiz-adv-x="217" />
<glyph unicode="&#x2009;" horiz-adv-x="348" />
<glyph unicode="&#x200a;" horiz-adv-x="96" />
<glyph unicode="&#x202f;" horiz-adv-x="348" />
<glyph unicode="&#x205f;" horiz-adv-x="435" />
<glyph unicode="&#x25fc;" horiz-adv-x="1597" d="M0 0v1597h1597v-1597h-1597z" />
</font>
</defs>
</svg>
